# AST/ASF file generated using VICON BodyLanguage
# -----------------------------------------------
:version 1.10
:name VICON
:units
  mass 1.0
  length 0.45
  angle deg
:documentation
   .ast/.asf automatically generated from VICON data using
   VICON BodyBuilder and BodyLanguage model FoxedUp or BRILLIANT.MOD
:root
   order TX TY TZ RX RY RZ
   axis XYZ
   position 0 0 0  
   orientation 0 0 0 
:bonedata
  begin
     id 1 
     name lhipjoint
     direction 0.693937 -0.600361 0.397515 
     length 2.37164 
     axis 0 0 0  XYZ
  end
  begin
     id 2 
     name lfemur
     direction 0.34202 -0.939693 0  
     length 6.18497  
     axis 0 0 20  XYZ
    dof rx ry rz
    limits (-160.0 20.0)
           (-70.0 70.0)
           (-60.0 70.0)
  end
  begin
     id 3 
     name ltibia
     direction 0.34202 -0.939693 0   
     length 6.91601   
     axis 0 0 20   XYZ
    dof rx
    limits (-10.0 170.0)
  end
  begin
     id 4 
     name lfoot
     direction 0.0978718 -0.2689 0.958182   
     length 1.81453   
     axis -90 7.62852e-016 20   XYZ
    dof rx rz
    limits (-45.0 90.0)
           (-70.0 20.0)
  end
  begin
     id 5 
     name ltoes
     direction 1.53569e-011 -4.21951e-011 1   
     length 0.912052   
     axis -90 7.62852e-016 20   XYZ
    dof rx
    limits (-90.0 20.0)
  end
  begin
     id 6 
     name rhipjoint
     direction -0.643996 -0.637876 0.422354   
     length 2.23216  
     axis 0 0 0  XYZ 
  end
  begin
     id 7 
     name rfemur
     direction -0.34202 -0.939693 0   
     length 6.15404   
     axis 0 0 -20   XYZ
    dof rx ry rz
    limits (-160.0 20.0)
           (-70.0 70.0)
           (-70.0 60.0)
  end
  begin
     id 8 
     name rtibia
     direction -0.34202 -0.939693 0   
     length 6.86744   
     axis 0 0 -20   XYZ
    dof rx
    limits (-10.0 170.0)
 end
 begin
     id 9 
     name rfoot
     direction -0.118701 -0.326127 0.937844   
     length 1.9243  
     axis -90 -7.62852e-016 -20   XYZ
    dof rx rz
    limits (-45.0 90.0)
           (-20.0 70.0)
  end
  begin
     id 10 
     name rtoes
     direction -1.5356e-011 -4.2181e-011 1   
     length 0.958865   
     axis -90 -7.62852e-016 -20   XYZ
    dof rx
    limits (-90.0 20.0)
  end
  begin
     id 11 
     name lowerback
     direction 0.0310826 0.968686 -0.246334   
     length 2.00021   
     axis 0 0 0   XYZ
    dof rx ry rz
    limits (-20.0 45.0)
           (-30.0 30.0)
           (-30.0 30.0)
  end
  begin
     id 12 
     name upperback
     direction -0.0152834 0.999474 -0.0286152   
     length 2.03728   
     axis 0 0 0   XYZ
    dof rx ry rz
    limits (-20.0 45.0)
           (-30.0 30.0)
           (-30.0 30.0)
  end
  begin
     id 13 
     name thorax
     direction -0.0323701 0.996236 0.0804149   
     length 2.16   
     axis 0 0 0   XYZ
    dof rx ry rz
    limits (-20.0 45.0)
           (-30.0 30.0)
           (-30.0 30.0)
  end
  begin
     id 14 
     name lowerneck
     direction 0.0307935 0.982251 0.185027   
     length 1.43558   
     axis 0 0 0   XYZ
    dof rx ry rz
    limits (-20.0 45.0)
           (-30.0 30.0)
           (-30.0 30.0)
  end
  begin
     id 15 
     name upperneck
     direction -0.0927153 0.994775 0.0427454   
     length 1.44603   
     axis 0 0 0   XYZ
    dof rx ry rz
    limits (-20.0 45.0)
           (-30.0 30.0)
           (-30.0 30.0)
  end
  begin
     id 16
     name head
     direction -0.0341265 0.999406 -0.00472033  
     length 1.45931  
     axis 0 0 0   XYZ
    dof rx ry rz
    limits (-20.0 45.0)
           (-30.0 30.0)
           (-30.0 30.0)
  end
  begin
     id 17 
     name lclavicle
     direction 0.820755 0.555306 -0.134151  
     length 2.66075  
     axis 0 0 0   XYZ
    dof ry rz
    limits (-20.0 10.0)
           (0.0 20.0)
  end
  begin
     id 18 
     name lhumerus
     direction 1 -4.48971e-011 5.24853e-027   
     length 5.0546   
     axis -180 -30 -90   XYZ
    dof rx ry rz
    limits (-60.0 90.0)
           (-90.0 90.0)
           (-90.0 90.0)
  end
  begin
     id 19
     name lradius
     direction 1 -4.48971e-011 2.76575e-028   
     length 3.39013   
     axis -180 -30 -90   XYZ
    dof rx
    limits (-10.0 170.0)
  end
  begin
     id 20
     name lwrist
     direction 1 -4.48939e-011 -2.27826e-027   
     length 1.69507   
     axis 2.17013e-015 90 90   XYZ
    dof ry
    limits (-180.0 0.0)
 end
  begin
     id 21 
     name lhand
     direction 1 -4.49009e-011 -4.55652e-027   
     length 0.572425   
     axis 2.90745e-015 90 90   XYZ
    dof rx rz
    limits (-90.0 90.0)
           (-45.0 45.0)
  end
  begin
     id 22 
     name lfingers
     direction 1 -4.48955e-011 -9.11303e-027   
     length 0.461504   
     axis 5.81489e-015 90 90   XYZ
    dof rx
    limits (0.0 90.0)
  end
  begin
     id 23
     name lthumb
     direction 0.707107 -6.34929e-011 0.707107   
     length 0.66263   
     axis -90 45 2.85299e-015   XYZ
    dof rx rz
    limits (-45.0 45.0)
           (-45.0 45.0)
  end
  begin
     id 24 
     name rclavicle
     direction -0.754477 0.632921 -0.173712   
     length 2.73081  
     axis 0 0 0   XYZ 
    dof ry rz
    limits (-10.0 20.0)
           (-20.0 0.0)
  end
  begin
     id 25 
     name rhumerus
     direction -1 -4.48969e-011 5.1496e-027  
     length 5.0701   
     axis -180 30 90   XYZ
    dof rx ry rz
    limits (-90.0 60.0)
           (-90.0 90.0)
           (-90.0 90.0)
  end
  begin
     id 26 
     name rradius
     direction -1 -4.48967e-011 -7.15624e-028   
     length 3.14957   
     axis -180 30 90   XYZ
    dof rx
    limits (-10.0 170.0)
  end
  begin
     id 27 
     name rwrist
     direction -1 -4.48938e-011 -2.27826e-027   
     length 1.57479   
     axis 2.17013e-015 -90 -90   XYZ
    dof ry
    limits (-180.0 0.0)
  end
  begin
     id 28
     name rhand
     direction -1 -4.49008e-011 -4.55652e-027   
     length 0.718191   
     axis 2.90745e-015 -90 -90   XYZ
    dof rx rz
    limits (-90.0 90.0)
           (-45.0 45.0)
  end
  begin
     id 29
     name rfingers
     direction -1 -4.48953e-011 -9.11303e-027   
     length 0.579024   
     axis 5.81489e-015 -90 -90   XYZ
    dof rx
    limits (0.0 90.0)
  end
  begin
     id 30
     name rthumb
     direction -0.707107 -6.34937e-011 0.707107   
     length 0.831366   
     axis -90 -45 -2.85299e-015   XYZ
    dof rx rz
    limits (-45.0 45.0)
           (-45.0 45.0)
  end
:hierarchy
  begin
    root lhipjoint rhipjoint lowerback
    lhipjoint lfemur
    lfemur ltibia
    ltibia lfoot
    lfoot ltoes
    rhipjoint rfemur
    rfemur rtibia
    rtibia rfoot
    rfoot rtoes
    lowerback upperback
    upperback thorax
    thorax lowerneck lclavicle rclavicle
    lowerneck upperneck
    upperneck head
    lclavicle lhumerus
    lhumerus lradius
    lradius lwrist
    lwrist lhand lthumb
    lhand lfingers
    rclavicle rhumerus
    rhumerus rradius
    rradius rwrist
    rwrist rhand rthumb
    rhand rfingers
  end

#!OML:ASF H:\Male1\Project 1\Capture day 1\Session 1\Male1.ASF
:FULLY-SPECIFIED
:DEGREES
35
root -24.4228 15.1314 3.02925 176.634 1.67781 -174.735
lowerback 4.75971 0.831407 2.31651
upperback 4.04162 1.43907 0.00656664
thorax 1.54149 0.881169 -1.33517
lowerneck -6.15133 3.64996 6.59262
upperneck 4.55495 4.53583 -3.8201
head 2.82971 2.25449 -2.21137
rclavicle -1.07344e-014 -3.97569e-015
rhumerus -33.7421 -12.7335 -83.4924
rradius 31.7288
rwrist -15.4079
rhand -15.4167 0.834876
rfingers 7.12502
rthumb 10.7628 -28.8694
lclavicle -1.07344e-014 -3.97569e-015
lhumerus -27.5685 8.37305 83.5593
lradius 24.0546
lwrist -8.86221
lhand -18.0392 11.3881
lfingers 7.12502
lthumb 8.23247 41.2077
rfemur -1.78366 15.9465 29.6971
rtibia 23.6347
rfoot -26.4963 -30.0764
rtoes -17.5746
lfemur -3.81577 -19.1341 -18.83
ltibia 28.9781
lfoot -24.9791 25.008
ltoes -2.82027
36
root -24.4275 15.1364 3.02249 176.842 1.53447 -175.518
lowerback 4.4984 0.831846 1.65195
upperback 3.98676 1.40352 -0.262963
thorax 1.61945 0.846892 -1.23392
lowerneck -6.11353 3.65432 6.60993
upperneck 4.53805 4.54108 -3.80241
head 2.81711 2.25815 -2.2087
rclavicle -4.77083e-015 -1.59028e-015
rhumerus -33.789 -12.7585 -83.5478
rradius 31.8107
rwrist -15.3294
rhand -15.2493 0.874524
rfingers 7.12502
rthumb 10.9243 -28.8213
lclavicle -4.77083e-015 -1.59028e-015
lhumerus -27.8855 8.49771 83.328
lradius 23.8801
lwrist -8.91288
lhand -18.3913 11.8663
lfingers 7.12502
lthumb 7.89264 41.699
rfemur -2.22088 15.8162 28.7137
rtibia 24.0506
rfoot -26.8049 -29.8458
rtoes -17.4007
lfemur -3.83521 -19.3252 -19.6908
ltibia 28.5871
lfoot -24.7751 25.1995
ltoes -3.05598
37
root -24.4407 15.1466 3.01655 177.385 1.49908 -178.217
lowerback 3.85872 0.930585 -0.908908
upperback 3.83535 1.4638 -1.03773
thorax 1.7813 0.82394 -0.58486
lowerneck -6.04967 3.6431 6.6175
upperneck 4.49605 4.53435 -3.88553
head 2.79375 2.25265 -2.23915
rclavicle 4.17448e-015 -4.77083e-014
rhumerus -33.7998 -12.5061 -83.6509
rradius 32.0011
rwrist -15.4979
rhand -15.5442 0.603867
rfingers 7.12502
rthumb 10.6399 -29.1068
lclavicle 4.17448e-015 -4.77083e-014
lhumerus -28.2295 8.81714 83.1178
lradius 23.8032
lwrist -8.98915
lhand -19.472 13.2069
lfingers 7.12502
lthumb 6.84949 43.0761
rfemur -3.16424 15.4439 25.4266
rtibia 24.5222
rfoot -26.8491 -29.1754
rtoes -17.4809
lfemur -4.19532 -19.6418 -22.5979
ltibia 28.1274
lfoot -24.6791 25.6469
ltoes -2.59238
38
root -24.4284 15.1403 3.01895 177.085 1.65031 -176.24
lowerback 4.34987 0.922412 0.919938
upperback 3.89382 1.49216 -0.452573
thorax 1.59576 0.871794 -1.01925
lowerneck -6.06998 3.62668 6.68995
upperneck 4.55227 4.51197 -3.98602
head 2.82164 2.23999 -2.28746
rclavicle -4.87022e-015 -2.14687e-014
rhumerus -33.8044 -12.1328 -83.8137
rradius 32.2792
rwrist -15.9785
rhand -16.1402 0.307651
rfingers 7.12502
rthumb 10.0649 -29.4317
lclavicle -4.87022e-015 -2.14687e-014
lhumerus -28.5761 9.18256 82.888
lradius 23.834
lwrist -9.05707
lhand -19.8867 13.9556
lfingers 7.12502
lthumb 6.44923 43.8374
rfemur -3.02819 15.9604 27.8502
rtibia 25.0599
rfoot -27.3981 -29.5424
rtoes -16.9504
lfemur -3.63049 -19.4644 -20.4484
ltibia 27.6802
lfoot -24.4311 25.4964
ltoes -2.62615
39
root -24.4274 15.1414 3.02115 177.164 1.62071 -176.417
lowerback 4.40139 0.931267 0.769072
upperback 3.82859 1.49653 -0.539141
thorax 1.49849 0.869257 -1.0259
lowerneck -6.10729 3.61102 6.6752
upperneck 4.67399 4.48323 -3.86411
head 2.86338 2.22969 -2.24474
rclavicle 5.1684e-015 -2.94201e-014
rhumerus -33.8194 -11.9567 -83.9654
rradius 32.4531
rwrist -16.2365
rhand -16.3833 0.39753
rfingers 7.12502
rthumb 9.83033 -29.353
lclavicle 5.1684e-015 -2.94201e-014
lhumerus -28.9287 9.43422 82.5735
lradius 23.8908
lwrist -8.88833
lhand -19.6649 13.6588
lfingers 7.12502
lthumb 6.66331 43.5339
rfemur -3.4575 15.9592 27.6449
rtibia 25.7086
rfoot -27.6793 -29.5388
rtoes -17.3312
lfemur -3.45896 -19.4638 -20.6021
ltibia 27.0946
lfoot -23.9869 25.6654
ltoes -3.05045
40
root -24.437 15.1475 3.01839 177.451 1.42325 -177.865
lowerback 4.11872 0.924608 -0.531719
upperback 3.72735 1.45222 -1.00274
thorax 1.53233 0.823382 -0.767006
lowerneck -6.10337 3.61643 6.72112
upperneck 4.72507 4.48325 -3.80789
head 2.87963 2.2327 -2.23428
rclavicle -8.84592e-015 -1.98785e-014
rhumerus -33.7645 -11.9298 -84.0709
rradius 32.4539
rwrist -16.2268
rhand -16.3011 0.588852
rfingers 7.12502
rthumb 9.90971 -29.1579
lclavicle -8.84592e-015 -1.98785e-014
lhumerus -29.2193 9.79569 82.21
lradius 23.8948
lwrist -8.6182
lhand -19.1391 12.989
lfingers 7.12502
lthumb 7.17086 42.8475
rfemur -3.91389 15.4985 25.8491
rtibia 25.8961
rfoot -27.6196 -29.1743
rtoes -17.8063
lfemur -3.71767 -19.6622 -22.1569
ltibia 26.9278
lfoot -23.8726 25.8398
ltoes -2.96906
